<svg width="91" height="44" viewBox="0 0 91 44" fill="none" xmlns="http://www.w3.org/2000/svg">
<path d="M21.7818 22.2736L36.4547 13.7738C39.8255 11.797 41.0151 7.4483 39.0324 3.89024C37.0495 0.529852 32.6874 -0.65618 29.1183 1.32051L3.73828 15.9481L21.7818 22.2736Z" fill="#EA4335"/>
<path d="M32.6872 43.8194C35.2648 43.8194 37.6443 42.4357 38.8339 40.2612C40.8167 36.901 39.627 32.3545 36.2562 30.3777L10.8762 15.7502C7.50544 13.7736 2.94497 14.9595 0.962155 18.3199C-1.02066 21.6803 0.16906 26.2268 3.53984 28.2034L28.9198 42.8309C30.3078 43.6216 31.4975 43.8194 32.6872 43.8194Z" fill="#4285F4"/>
<path d="M57.8667 43.8188C59.0564 43.8188 60.2461 43.4234 61.4357 42.8303L86.8158 28.2028L69.1688 21.6797L54.2977 30.1795C50.9269 32.1563 49.7371 36.505 51.72 40.063C53.1079 42.6327 55.4874 43.8188 57.8667 43.8188Z" fill="#FBBC04"/>
<path d="M83.2497 29.3897C85.8274 29.3897 88.2067 28.006 89.3964 25.8316C91.3793 22.4712 90.1896 17.9248 86.8188 15.9481L61.4388 1.32052C58.0679 -0.656184 53.5074 0.529849 51.5247 3.89023C49.5418 7.25062 50.7315 11.797 54.1023 13.7738L79.4824 28.4013C80.6721 28.9943 82.06 29.3897 83.2497 29.3897Z" fill="#0F9D58"/>
</svg>
